<?xml version="1.0" standalone="no"?>
<!DOCTYPE svg PUBLIC "-//W3C//DTD SVG 20010904//EN"
 "http://www.w3.org/TR/2001/REC-SVG-20010904/DTD/svg10.dtd">
<svg version="1.0" xmlns="http://www.w3.org/2000/svg"
 width="110.000000pt" height="110.000000pt" viewBox="0 0 110.000000 110.000000"
 preserveAspectRatio="xMidYMid meet">
<metadata>
Created by potrace 1.14, written by Peter Selinger 2001-2017
</metadata>
<g transform="translate(0.000000,110.000000) scale(0.100000,-0.100000)"
fill="#000000" stroke="none">
<path d="M482 1027 c-34 -21 -48 -34 -40 -39 7 -4 74 -42 148 -85 l135 -78 5
-173 5 -173 55 33 55 33 0 169 c0 92 -2 171 -5 175 -7 10 -289 171 -298 170
-4 0 -31 -15 -60 -32z"/>
<path d="M243 887 l-143 -82 0 -67 0 -67 147 85 c81 46 153 82 161 79 7 -2 73
-39 145 -81 73 -42 134 -78 137 -80 3 -1 6 28 7 64 l2 67 -145 83 c-80 45
-150 82 -157 82 -7 -1 -76 -38 -154 -83z"/>
<path d="M875 698 c1 -160 -1 -171 -20 -185 -11 -8 -78 -49 -149 -90 l-129
-75 57 -33 58 -33 57 32 c31 18 98 57 149 87 l92 54 0 172 0 173 -37 23 c-87
54 -79 67 -78 -125z"/>
<path d="M243 717 l-143 -82 0 -175 0 -175 58 -32 57 -31 -1 170 0 171 41 26
c23 14 89 53 148 86 59 33 106 62 107 65 0 8 -98 60 -113 60 -6 0 -76 -37
-154 -83z"/>
<path d="M310 583 c-25 -14 -49 -29 -54 -34 -15 -14 -14 -338 1 -351 14 -11
124 -78 129 -78 2 0 38 -21 80 -47 l77 -46 51 28 c28 15 54 31 59 35 4 3 -59
44 -140 91 l-148 85 -2 168 c0 92 -3 169 -5 171 -1 2 -23 -8 -48 -22z"/>
<path d="M845 334 c-77 -46 -144 -83 -150 -84 -5 0 -72 36 -148 80 -76 44
-142 80 -146 80 -5 0 -8 -28 -9 -62 l0 -63 150 -86 151 -87 148 86 149 86 0
68 c0 37 -1 68 -2 67 -2 0 -66 -39 -143 -85z"/>
</g>
</svg>
