<?xml version="1.0" standalone="no"?>
<!DOCTYPE svg PUBLIC "-//W3C//DTD SVG 20010904//EN"
 "http://www.w3.org/TR/2001/REC-SVG-20010904/DTD/svg10.dtd">
<svg version="1.0" xmlns="http://www.w3.org/2000/svg"
 width="644.000000pt" height="644.000000pt" viewBox="0 0 644.000000 644.000000"
 preserveAspectRatio="xMidYMid meet">
<metadata>
Created by potrace 1.14, written by Peter Selinger 2001-2017
</metadata>
<g transform="translate(0.000000,644.000000) scale(0.100000,-0.100000)"
fill="#000000" stroke="none">
<path d="M380 6424 c-92 -25 -162 -65 -230 -134 -69 -69 -110 -140 -134 -230
-22 -83 -22 -5597 0 -5680 49 -181 184 -315 366 -364 45 -13 462 -15 2830 -15
2022 -1 2792 2 2830 10 136 29 281 140 340 259 62 126 58 -93 57 2960 l0 2785
-23 71 c-55 169 -184 292 -358 338 -81 22 -5597 22 -5678 0z"/>
</g>
</svg>
