<?xml version="1.0" standalone="no"?>
<!DOCTYPE svg PUBLIC "-//W3C//DTD SVG 20010904//EN"
 "http://www.w3.org/TR/2001/REC-SVG-20010904/DTD/svg10.dtd">
<svg version="1.0" xmlns="http://www.w3.org/2000/svg"
 width="269.000000pt" height="269.000000pt" viewBox="0 0 269.000000 269.000000"
 preserveAspectRatio="xMidYMid meet">
<metadata>
Created by potrace 1.14, written by Peter Selinger 2001-2017
</metadata>
<g transform="translate(0.000000,269.000000) scale(0.100000,-0.100000)"
fill="#000000" stroke="none">
<path d="M1200 2684 c-462 -57 -852 -330 -1058 -739 -53 -107 -86 -200 -114
-326 -33 -150 -33 -398 0 -548 92 -414 346 -742 717 -929 107 -53 200 -86 326
-114 150 -33 398 -33 548 0 265 59 490 182 676 367 185 186 308 411 367 676
33 150 33 398 0 548 -92 410 -342 737 -707 923 -190 97 -351 137 -570 142 -82
3 -166 2 -185 0z m414 -244 c149 -44 277 -84 285 -88 11 -6 13 -29 12 -97 -1
-49 -3 -91 -5 -92 -1 -1 -129 35 -285 82 l-284 83 -176 -52 -176 -52 -5 -59
-5 -60 -80 -27 c-44 -14 -86 -27 -92 -27 -10 -1 -13 36 -13 154 l0 154 68 21
c194 59 468 139 476 139 5 1 131 -35 280 -79z m-1034 -702 l-2 -552 42 -80
c151 -289 382 -545 643 -715 l67 -44 63 38 c106 66 208 146 315 249 156 151
258 289 352 475 l40 81 0 550 c0 302 3 550 7 550 4 0 44 -11 90 -25 l83 -26 0
-540 0 -540 -51 -101 c-171 -341 -466 -660 -792 -857 l-106 -63 -58 33 c-273
153 -537 404 -717 681 -31 48 -81 138 -111 200 l-55 113 0 537 c0 366 3 539
11 543 16 11 132 43 157 44 l23 1 -1 -552z m988 298 c119 -35 245 -72 280 -81
l62 -18 0 -118 c0 -66 -4 -119 -9 -119 -4 0 -133 38 -286 85 l-278 85 -166
-51 c-91 -27 -174 -52 -183 -55 -17 -5 -18 -25 -18 -243 l0 -238 54 -86 c96
-154 275 -357 313 -357 14 0 194 188 247 258 48 62 126 190 126 204 0 5 -85 8
-190 8 l-190 0 0 95 0 95 290 0 290 0 0 -96 c0 -88 -3 -101 -34 -170 -67 -143
-207 -337 -327 -449 -84 -79 -195 -165 -212 -165 -38 0 -269 214 -371 345 -35
44 -87 121 -117 170 l-54 90 0 360 0 359 130 39 c72 21 189 55 260 77 72 21
138 39 148 39 9 1 115 -28 235 -63z"/>
</g>
</svg>
